<?xml version="1.0" encoding="UTF-8"?>
<!DOCTYPE svg PUBLIC "-//W3C//DTD SVG 1.1//EN" "http://www.w3.org/Graphics/SVG/1.1/DTD/svg11.dtd">
<!-- Creator: CorelDRAW X7 -->
<svg xmlns="http://www.w3.org/2000/svg" xml:space="preserve" width="330mm" height="483mm" version="1.1" style="shape-rendering:geometricPrecision; text-rendering:geometricPrecision; image-rendering:optimizeQuality; fill-rule:evenodd; clip-rule:evenodd"
viewBox="0 0 33000 48300"
 xmlns:xlink="http://www.w3.org/1999/xlink">
 <defs>
  <style type="text/css">
   <![CDATA[
    .fil0 {fill:#1A1A1A}
   ]]>
  </style>
 </defs>
 <g id="Layer_x0020_1">
  <metadata id="CorelCorpID_0Corel-Layer"/>
  <g id="_2033461464096">
   <g>
    <path class="fil0" d="M1729 8150l11656 0c676,0 1229,553 1229,1229l0 11656c0,676 -553,1229 -1229,1229l-11656 0c-676,0 -1229,-553 -1229,-1229l0 -11656c0,-676 553,-1229 1229,-1229z"/>
    <path class="fil0" d="M19615 8150l11656 0c676,0 1229,553 1229,1229l0 11656c0,676 -553,1229 -1229,1229l-11656 0c-676,0 -1229,-553 -1229,-1229l0 -11656c0,-676 553,-1229 1229,-1229z"/>
   </g>
   <g>
    <path class="fil0" d="M1729 26036l11656 0c676,0 1229,553 1229,1229l0 11656c0,676 -553,1229 -1229,1229l-11656 0c-676,0 -1229,-553 -1229,-1229l0 -11656c0,-676 553,-1229 1229,-1229z"/>
    <path class="fil0" d="M19615 26036l11656 0c676,0 1229,553 1229,1229l0 11656c0,676 -553,1229 -1229,1229l-11656 0c-676,0 -1229,-553 -1229,-1229l0 -11656c0,-676 553,-1229 1229,-1229z"/>
   </g>
  </g>
 </g>
</svg>
