<?xml version="1.0" encoding="UTF-8"?>
<!DOCTYPE svg PUBLIC "-//W3C//DTD SVG 1.1//EN" "http://www.w3.org/Graphics/SVG/1.1/DTD/svg11.dtd">
<!-- Creator: CorelDRAW X7 -->
<svg xmlns="http://www.w3.org/2000/svg" xml:space="preserve" width="330mm" height="483mm" version="1.1" style="shape-rendering:geometricPrecision; text-rendering:geometricPrecision; image-rendering:optimizeQuality; fill-rule:evenodd; clip-rule:evenodd"
viewBox="0 0 33000 48300"
 xmlns:xlink="http://www.w3.org/1999/xlink">
 <defs>
  <style type="text/css">
   <![CDATA[
    .fil0 {fill:#1A1A1A}
   ]]>
  </style>
 </defs>
 <g id="Layer_x0020_1">
  <metadata id="CorelCorpID_0Corel-Layer"/>
  <path class="fil0" d="M16499 8150l2 0 13567 13567 0 17643c0,434 -356,790 -790,790l-2392 0 -893 0 -18986 0 -469 0 -2816 0c-435,0 -790,-356 -790,-790l0 -17643 13567 -13567zm8825 23978l-17648 0c-127,0 -230,103 -230,229l0 2180c0,126 103,230 230,230l17648 0c127,0 230,-104 230,-230l0 -2180c0,-126 -103,-229 -230,-229zm0 -4742l-17648 0c-127,0 -230,104 -230,230l0 2179c0,127 103,230 230,230l17648 0c127,0 230,-103 230,-230l0 -2179c0,-126 -103,-230 -230,-230z"/>
 </g>
</svg>
