<svg width="24" height="24" viewBox="0 0 24 24" fill="none" xmlns="http://www.w3.org/2000/svg">
<path d="M16 17H22M2.00299 11.995C2.00303 12.189 2.05949 12.3788 2.16549 12.5412C2.27149 12.7037 2.42246 12.8318 2.59999 12.91L11.18 16.82C11.4406 16.9387 11.7236 17.0001 12.01 17M2.00299 16.995C2.00303 17.189 2.05949 17.3788 2.16549 17.5412C2.27149 17.7037 2.42246 17.8318 2.59999 17.91L11.18 21.82C11.4406 21.9387 11.7236 22.0001 12.01 22C12.2964 22.0001 12.5794 21.9387 12.84 21.82L14.95 20.86M22.018 12.004C22.0181 12.1983 21.9615 12.3883 21.8553 12.551C21.7491 12.7137 21.5979 12.8419 21.42 12.92L21.243 13M12.83 2.17999C12.5694 2.06114 12.2864 1.99963 12 1.99963C11.7136 1.99963 11.4306 2.06114 11.17 2.17999L2.59999 6.07999C2.42254 6.15823 2.27167 6.28639 2.16575 6.44885C2.05984 6.61131 2.00344 6.80106 2.00344 6.99499C2.00344 7.18893 2.05984 7.37868 2.16575 7.54113C2.27167 7.70359 2.42254 7.83175 2.59999 7.90999L11.18 11.82C11.4406 11.9387 11.7236 12.0001 12.01 12C12.2964 12.0001 12.5794 11.9387 12.84 11.82L21.42 7.91999C21.598 7.84202 21.7495 7.71386 21.8558 7.55118C21.9622 7.3885 22.0188 7.19835 22.0188 7.00399C22.0188 6.80963 21.9622 6.61949 21.8558 6.45681C21.7495 6.29413 21.598 6.16596 21.42 6.08799L12.83 2.17999Z" stroke="black" stroke-width="2" stroke-linecap="round" stroke-linejoin="round"/>
</svg>
