<svg width="30" height="30" viewBox="0 0 30 30" fill="none" xmlns="http://www.w3.org/2000/svg">
<g filter="url(#filter0_d_44_87)">
<path d="M15 7V21M15 7C15 5.93913 14.5786 4.92172 13.8284 4.17157C13.0783 3.42143 12.0609 3 11 3H6C5.73478 3 5.48043 3.10536 5.29289 3.29289C5.10536 3.48043 5 3.73478 5 4V17C5 17.2652 5.10536 17.5196 5.29289 17.7071C5.48043 17.8946 5.73478 18 6 18H12C12.7956 18 13.5587 18.3161 14.1213 18.8787C14.6839 19.4413 15 20.2044 15 21M15 7C15 5.93913 15.4214 4.92172 16.1716 4.17157C16.9217 3.42143 17.9391 3 19 3H24C24.2652 3 24.5196 3.10536 24.7071 3.29289C24.8946 3.48043 25 3.73478 25 4V17C25 17.2652 24.8946 17.5196 24.7071 17.7071C24.5196 17.8946 24.2652 18 24 18H18C17.2044 18 16.4413 18.3161 15.8787 18.8787C15.3161 19.4413 15 20.2044 15 21" stroke="black" stroke-width="2" stroke-linecap="round" stroke-linejoin="round"/>
</g>
<defs>
<filter id="filter0_d_44_87" x="-1" y="0" width="32" height="32" filterUnits="userSpaceOnUse" color-interpolation-filters="sRGB">
<feFlood flood-opacity="0" result="BackgroundImageFix"/>
<feColorMatrix in="SourceAlpha" type="matrix" values="0 0 0 0 0 0 0 0 0 0 0 0 0 0 0 0 0 0 127 0" result="hardAlpha"/>
<feOffset dy="4"/>
<feGaussianBlur stdDeviation="2"/>
<feComposite in2="hardAlpha" operator="out"/>
<feColorMatrix type="matrix" values="0 0 0 0 0 0 0 0 0 0 0 0 0 0 0 0 0 0 0.25 0"/>
<feBlend mode="normal" in2="BackgroundImageFix" result="effect1_dropShadow_44_87"/>
<feBlend mode="normal" in="SourceGraphic" in2="effect1_dropShadow_44_87" result="shape"/>
</filter>
</defs>
</svg>
