<?xml version="1.0" encoding="UTF-8"?>
<!DOCTYPE svg PUBLIC "-//W3C//DTD SVG 1.1//EN" "http://www.w3.org/Graphics/SVG/1.1/DTD/svg11.dtd">
<!-- Creator: CorelDRAW X7 -->
<svg xmlns="http://www.w3.org/2000/svg" xml:space="preserve" width="330mm" height="483mm" version="1.1" style="shape-rendering:geometricPrecision; text-rendering:geometricPrecision; image-rendering:optimizeQuality; fill-rule:evenodd; clip-rule:evenodd"
viewBox="0 0 33000 48300"
 xmlns:xlink="http://www.w3.org/1999/xlink">
 <defs>
  <style type="text/css">
   <![CDATA[
    .fil0 {fill:#1A1A1A}
   ]]>
  </style>
 </defs>
 <g id="Layer_x0020_1">
  <metadata id="CorelCorpID_0Corel-Layer"/>
  <g id="_2033463868704">
   <path class="fil0" d="M3424 31081l5884 0c341,0 620,279 620,620l0 7829c0,341 -279,620 -620,620l-5884 0c-341,0 -620,-279 -620,-620l0 -7829c0,-341 279,-620 620,-620z"/>
   <path class="fil0" d="M12622 31081l16528 0c435,0 790,355 790,789l0 7490c0,435 -355,790 -790,790l-16528 0c-435,0 -790,-355 -790,-790l0 -7490c0,-434 355,-789 790,-789z"/>
   <g>
    <path class="fil0" d="M3424 8150l5884 0c341,0 620,279 620,620l0 7829c0,341 -279,620 -620,620l-5884 0c-341,0 -620,-279 -620,-620l0 -7829c0,-341 279,-620 620,-620z"/>
    <path class="fil0" d="M12622 8150l16528 0c435,0 790,355 790,790l0 7490c0,434 -355,789 -790,789l-16528 0c-435,0 -790,-355 -790,-789l0 -7490c0,-435 355,-790 790,-790z"/>
   </g>
   <path class="fil0" d="M3424 19588l5884 0c341,0 620,279 620,621l0 7828c0,341 -279,620 -620,620l-5884 0c-341,0 -620,-279 -620,-620l0 -7828c0,-342 279,-621 620,-621z"/>
   <path class="fil0" d="M12622 19588l16528 0c435,0 790,356 790,790l0 7490c0,434 -355,789 -790,789l-16528 0c-435,0 -790,-355 -790,-789l0 -7490c0,-434 355,-790 790,-790z"/>
  </g>
 </g>
</svg>
