<?xml version="1.0" encoding="UTF-8"?>
<!DOCTYPE svg PUBLIC "-//W3C//DTD SVG 1.1//EN" "http://www.w3.org/Graphics/SVG/1.1/DTD/svg11.dtd">
<!-- Creator: CorelDRAW X7 -->
<svg xmlns="http://www.w3.org/2000/svg" xml:space="preserve" width="330mm" height="483mm" version="1.1" style="shape-rendering:geometricPrecision; text-rendering:geometricPrecision; image-rendering:optimizeQuality; fill-rule:evenodd; clip-rule:evenodd"
viewBox="0 0 33000 48300"
 xmlns:xlink="http://www.w3.org/1999/xlink">
 <defs>
  <style type="text/css">
   <![CDATA[
    .fil0 {fill:#1A1A1A}
   ]]>
  </style>
 </defs>
 <g id="Layer_x0020_1">
  <metadata id="CorelCorpID_0Corel-Layer"/>
  <g id="_2033455454720">
   <path class="fil0" d="M20122 31081l-16529 0c-434,0 -789,355 -789,789l0 7490c0,435 355,790 789,790l16529 0c434,0 790,-355 790,-790l0 -7490c0,-434 -356,-789 -790,-789z"/>
   <path class="fil0" d="M29320 8150l-5884 0c-341,0 -621,279 -621,620l0 1753 2721 2720 4404 -4404 0 -69c0,-341 -279,-620 -620,-620zm-6505 5709l0 2740c0,341 280,620 621,620l5884 0c341,0 620,-279 620,-620l0 -4424 -2736 2736 -1668 1668 -1668 -1668 -1053 -1052z"/>
   <path class="fil0" d="M20122 8150l-16529 0c-434,0 -789,355 -789,790l0 7490c0,434 355,789 789,789l16529 0c434,0 790,-355 790,-789l0 -7490c0,-435 -356,-790 -790,-790z"/>
   <path class="fil0" d="M20122 19588l-16529 0c-434,0 -789,356 -789,790l0 7490c0,434 355,789 789,789l16529 0c434,0 790,-355 790,-789l0 -7490c0,-434 -356,-790 -790,-790z"/>
   <path class="fil0" d="M29320 19588l-5884 0c-341,0 -621,279 -621,621l0 1752 2721 2721 4404 -4404 0 -69c0,-342 -279,-621 -620,-621zm-6505 5709l0 2740c0,341 280,620 621,620l5884 0c341,0 620,-279 620,-620l0 -4424 -2736 2737 -1668 1667 -1668 -1667 -1053 -1053z"/>
   <path class="fil0" d="M29320 31081l-5884 0c-341,0 -621,279 -621,620l0 1753 2721 2720 4404 -4404 0 -69c0,-341 -279,-620 -620,-620zm-6505 5708l0 2741c0,341 280,620 621,620l5884 0c341,0 620,-279 620,-620l0 -4424 -2736 2736 -1668 1668 -1668 -1668 -1053 -1053z"/>
  </g>
 </g>
</svg>
