<?xml version="1.0" encoding="UTF-8"?>
<!DOCTYPE svg PUBLIC "-//W3C//DTD SVG 1.1//EN" "http://www.w3.org/Graphics/SVG/1.1/DTD/svg11.dtd">
<!-- Creator: CorelDRAW X7 -->
<svg xmlns="http://www.w3.org/2000/svg" xml:space="preserve" width="330mm" height="483mm" version="1.1" style="shape-rendering:geometricPrecision; text-rendering:geometricPrecision; image-rendering:optimizeQuality; fill-rule:evenodd; clip-rule:evenodd"
viewBox="0 0 33000 48300"
 xmlns:xlink="http://www.w3.org/1999/xlink">
 <defs>
  <style type="text/css">
   <![CDATA[
    .fil0 {fill:#010101}
   ]]>
  </style>
 </defs>
 <g id="Layer_x0020_1">
  <metadata id="CorelCorpID_0Corel-Layer"/>
  <g id="_2033580663680">
   <path class="fil0" d="M10525 23710c-867,229 -2720,1635 -3388,2352 -549,591 -651,562 -1330,1533 -1502,2148 -1727,3643 -2393,6189 -404,1544 -1060,3179 -156,4640 875,1414 1896,1704 4026,1704l17252 0c2251,0 3295,265 4687,-1043 1252,-1177 1098,-2487 635,-4290 -974,-3796 -1009,-5112 -3392,-8133 -747,-948 -2115,-1953 -3169,-2554 -1594,-907 -561,-10 -3758,1077 -5205,1771 -8724,-1551 -9014,-1475z"/>
   <path class="fil0" d="M15570 8216c-4072,527 -7490,4108 -6927,8843 475,3998 4179,7443 8865,6871 3991,-487 7430,-4175 6857,-8843 -489,-3989 -4200,-7465 -8795,-6871z"/>
  </g>
 </g>
</svg>
